<svg width="162" height="270" viewBox="0 0 162 270" fill="none" xmlns="http://www.w3.org/2000/svg">
    <path fill-rule="evenodd" clip-rule="evenodd" d="M80.0447 24.8028C76.9109 21.1244 74.7899 16.6165 75.1444 11.5652C76.1655 -2.98891 96.4254 0.212812 100.366 7.55849C104.307 14.9042 103.839 33.5371 98.7457 34.85C96.7145 35.3735 92.3874 34.091 87.9834 31.4365L90.7477 50.9928H74.4257L80.0447 24.8028Z" fill="#B28B67" />
    <path fill-rule="evenodd" clip-rule="evenodd" d="M88.7995 13.1726C89.4243 21.8757 91.077 26.2273 93.7576 26.2273C97.7788 26.2273 101.191 23.6745 102.955 23.6745C104.241 23.6745 103.954 25.2841 103.101 26.4775C102.398 27.462 98.9726 28.411 98.9726 29.9374C98.9726 31.4639 101.679 30.283 101.679 31.1882C101.679 32.6857 102.155 35.5012 99.5556 35.5012C96.9254 35.5012 89.384 34.5427 88.0916 30.6389C87.2575 28.1195 86.7182 22.8989 86.4737 14.977C86.3142 14.9581 86.1518 14.9483 85.9871 14.9483C83.7335 14.9483 81.9066 16.7752 81.9066 19.0288C81.9066 20.1729 82.3774 21.207 83.1359 21.9479C82.1917 23.2806 81.1335 24.6728 79.921 26.1093C75.3658 23.3764 71.9856 15.3761 76.4391 7.69066C77.67 3.92569 80.4567 1.91468 83.7478 0.980899C86.4138 -0.134297 89.1814 -0.260037 91.5176 0.408513C96.0972 0.801325 100.187 2.19778 101.346 3.02709C101.346 7.36279 100.505 8.64918 93.3299 8.53579C91.5667 9.46695 90.2113 11.0704 88.7995 13.1726Z" fill="#191847" />
    <path fill-rule="evenodd" clip-rule="evenodd" d="M68.985 107.44L93.6414 193.965L111.631 257.739H124.752L105.635 107.44H68.985Z" fill="#191847" />
    <path fill-rule="evenodd" clip-rule="evenodd" d="M62.3911 107.44C61.8208 152.036 59.8761 176.36 59.2773 180.412C58.6785 184.463 49.6244 210.239 32.1151 257.739H45.7075C67.9982 212.171 80.4415 186.395 83.0372 180.412C85.633 174.428 93.6438 150.104 105.71 107.44H62.3911Z" fill="#2F3676" />
    <path fill-rule="evenodd" clip-rule="evenodd" d="M30.9003 269.98L31.5804 255.698H45.8621C52.6341 260.459 61.4752 264.313 72.3854 267.26V269.98H46.5422L37.7011 268.62V269.98H30.9003Z" fill="#191847" />
    <path fill-rule="evenodd" clip-rule="evenodd" d="M109.79 269.98L110.47 255.698H124.752C131.524 260.459 140.365 264.313 151.275 267.26V269.98H125.432L116.591 268.62V269.98H109.79Z" fill="#191847" />
    <path fill-rule="evenodd" clip-rule="evenodd" d="M126.356 96.2933L146.886 113.698C152.644 115.692 157.41 118.005 161.183 120.638C162.054 121.551 163.059 123.346 159.221 122.779C155.384 122.213 151.323 121.79 150.699 123.068C150.074 124.347 152.299 126.084 151.099 127.784C150.298 128.917 147.117 125.713 141.554 118.169L120.745 107.784L126.356 96.2933ZM33.3943 88.762L45.4398 90.5113C32.51 118.564 25.5782 133.401 24.6443 135.02C22.5432 138.663 25.0143 145.008 25.9803 148.367C21.0984 149.777 22.6575 142.234 16.4846 144.115C10.8503 145.832 6.20078 149.725 0.620511 145.096C-0.0655505 144.527 -0.643473 142.666 1.53715 141.582C6.96986 138.881 14.9463 133.938 16.1863 132.116C17.8771 129.632 23.6131 115.18 33.3943 88.762Z" fill="#B28B67" />
    <path fill-rule="evenodd" clip-rule="evenodd" d="M83.7395 39.6572L91.2034 37.1889C101.328 62.4814 116.428 86.9532 141.657 107.624L135.418 118.387C113.246 105.326 92.2566 95.1798 83.7395 75.5811C80.8809 69.0032 83.5063 47.5223 83.7395 39.6572Z" fill="#C5CFD6" />
    <path fill-rule="evenodd" clip-rule="evenodd" d="M58.1036 110.84C79.4844 113.107 96.3133 113.107 108.591 110.84C110.112 110.559 110.352 108.013 109.646 106.284C98.6614 79.369 91.1288 55.8837 91.1288 37.1889C89.1132 38.2051 85.5857 38.3573 80.5464 37.6458C67.0034 56.9114 60.7781 79.0165 58.1036 110.84Z" fill="#323337" />
    <path fill-rule="evenodd" clip-rule="evenodd" d="M77.1797 36.031H82.8237C84.1379 43.76 88.2829 148.424 101.079 182.661H31.8425C33.3435 151.297 45.1841 113.62 57.1787 82.092C46.5725 91.7976 37.3284 108.243 29.4462 131.428L16.4775 128.099C26.1202 86.5484 45.9455 56.0084 75.9534 36.4792C76.0184 36.3291 76.0831 36.1797 76.1475 36.031H76.6469C76.8308 35.913 77.015 35.7954 77.1996 35.6782L77.1797 36.031V36.031Z" fill="#DDE3E9" />
</svg>
    