<svg width="131" height="120" viewBox="0 0 131 120" fill="none" xmlns="http://www.w3.org/2000/svg">
    <g filter="url(#filter0_d_0_1)">
        <rect x="4" width="123" height="112" rx="10" fill="#46C7BA" />
        <rect x="4.5" y="0.5" width="122" height="111" rx="9.5" stroke="black" stroke-opacity="0.1" stroke-linejoin="round" />
    </g>
    <path d="M12.396 91.2102V90.2727H18.9414V91.2102H16.1971V99H15.1403V91.2102H12.396ZM20.4361 99V92.4545H21.4418V99H20.4361ZM20.9474 91.3636C20.7514 91.3636 20.5824 91.2969 20.4403 91.1634C20.3011 91.0298 20.2315 90.8693 20.2315 90.6818C20.2315 90.4943 20.3011 90.3338 20.4403 90.2003C20.5824 90.0668 20.7514 90 20.9474 90C21.1435 90 21.3111 90.0668 21.4503 90.2003C21.5923 90.3338 21.6634 90.4943 21.6634 90.6818C21.6634 90.8693 21.5923 91.0298 21.4503 91.1634C21.3111 91.2969 21.1435 91.3636 20.9474 91.3636ZM26.1303 92.4545V93.3068H22.7383V92.4545H26.1303ZM23.7269 90.8864H24.7326V97.125C24.7326 97.4091 24.7738 97.6222 24.8562 97.7642C24.9414 97.9034 25.0494 97.9972 25.18 98.0455C25.3136 98.0909 25.4542 98.1136 25.6019 98.1136C25.7127 98.1136 25.8036 98.108 25.8746 98.0966C25.9457 98.0824 26.0025 98.071 26.0451 98.0625L26.2496 98.9659C26.1815 98.9915 26.0863 99.017 25.9641 99.0426C25.842 99.071 25.6871 99.0852 25.4996 99.0852C25.2156 99.0852 24.9371 99.0241 24.6644 98.902C24.3945 98.7798 24.1701 98.5938 23.9911 98.3438C23.815 98.0938 23.7269 97.7784 23.7269 97.3977V90.8864ZM31.7681 96.3239V92.4545H32.7738V99H31.7681V97.892H31.6999C31.5465 98.2244 31.3079 98.5071 30.984 98.7401C30.6602 98.9702 30.2511 99.0852 29.7567 99.0852C29.3477 99.0852 28.984 98.9957 28.6658 98.8168C28.3477 98.6349 28.0977 98.3622 27.9158 97.9986C27.734 97.6321 27.6431 97.1705 27.6431 96.6136V92.4545H28.6488V96.5455C28.6488 97.0227 28.7823 97.4034 29.0494 97.6875C29.3192 97.9716 29.663 98.1136 30.0806 98.1136C30.3306 98.1136 30.5849 98.0497 30.8434 97.9219C31.1048 97.794 31.3235 97.598 31.4996 97.3338C31.6786 97.0696 31.7681 96.733 31.7681 96.3239ZM35.6214 90.2727V99H34.6158V90.2727H35.6214ZM39.3896 99.1534C38.9748 99.1534 38.5984 99.0753 38.2603 98.919C37.9222 98.7599 37.6538 98.5312 37.4549 98.233C37.256 97.9318 37.1566 97.5682 37.1566 97.142C37.1566 96.767 37.2305 96.4631 37.3782 96.2301C37.5259 95.9943 37.7234 95.8097 37.9705 95.6761C38.2177 95.5426 38.4904 95.4432 38.7887 95.3778C39.0898 95.3097 39.3924 95.2557 39.6964 95.2159C40.0941 95.1648 40.4165 95.1264 40.6637 95.1009C40.9137 95.0724 41.0955 95.0256 41.2092 94.9602C41.3256 94.8949 41.3839 94.7812 41.3839 94.6193V94.5852C41.3839 94.1648 41.2688 93.8381 41.0387 93.6051C40.8114 93.3722 40.4663 93.2557 40.0032 93.2557C39.5231 93.2557 39.1467 93.3608 38.8739 93.571C38.6012 93.7812 38.4094 94.0057 38.2987 94.2443L37.3441 93.9034C37.5146 93.5057 37.7418 93.196 38.0259 92.9744C38.3129 92.75 38.6254 92.5937 38.9634 92.5057C39.3043 92.4148 39.6396 92.3693 39.9691 92.3693C40.1793 92.3693 40.4208 92.3949 40.6935 92.446C40.9691 92.4943 41.2347 92.5952 41.4904 92.7486C41.7489 92.902 41.9634 93.1335 42.1339 93.4432C42.3043 93.7528 42.3896 94.1676 42.3896 94.6875V99H41.3839V98.1136H41.3327C41.2646 98.2557 41.1509 98.4077 40.9918 98.5696C40.8327 98.7315 40.6211 98.8693 40.3569 98.983C40.0927 99.0966 39.7702 99.1534 39.3896 99.1534ZM39.543 98.25C39.9407 98.25 40.2759 98.1719 40.5487 98.0156C40.8242 97.8594 41.0316 97.6577 41.1708 97.4105C41.3129 97.1634 41.3839 96.9034 41.3839 96.6307V95.7102C41.3413 95.7614 41.2475 95.8082 41.1026 95.8509C40.9606 95.8906 40.7958 95.9261 40.6083 95.9574C40.4237 95.9858 40.2433 96.0114 40.0671 96.0341C39.8938 96.054 39.7532 96.071 39.6452 96.0852C39.3839 96.1193 39.1396 96.1747 38.9123 96.2514C38.6879 96.3253 38.506 96.4375 38.3668 96.5881C38.2305 96.7358 38.1623 96.9375 38.1623 97.1932C38.1623 97.5426 38.2915 97.8068 38.5501 97.9858C38.8114 98.1619 39.1424 98.25 39.543 98.25ZM44.2251 99V92.4545H45.2308V99H44.2251ZM44.7365 91.3636C44.5405 91.3636 44.3714 91.2969 44.2294 91.1634C44.0902 91.0298 44.0206 90.8693 44.0206 90.6818C44.0206 90.4943 44.0902 90.3338 44.2294 90.2003C44.3714 90.0668 44.5405 90 44.7365 90C44.9325 90 45.1001 90.0668 45.2393 90.2003C45.3814 90.3338 45.4524 90.4943 45.4524 90.6818C45.4524 90.8693 45.3814 91.0298 45.2393 91.1634C45.1001 91.2969 44.9325 91.3636 44.7365 91.3636ZM47.0728 99V92.4545H48.0444V93.4432H48.1126C48.2319 93.1193 48.4478 92.8565 48.7603 92.6548C49.0728 92.4531 49.4251 92.3523 49.8171 92.3523C49.891 92.3523 49.9833 92.3537 50.0941 92.3565C50.2049 92.3594 50.2887 92.3636 50.3455 92.3693V93.392C50.3114 93.3835 50.2333 93.3707 50.1112 93.3537C49.9918 93.3338 49.8654 93.3239 49.7319 93.3239C49.4137 93.3239 49.1296 93.3906 48.8796 93.5241C48.6325 93.6548 48.4364 93.8366 48.2915 94.0696C48.1495 94.2997 48.0785 94.5625 48.0785 94.858V99H47.0728ZM54.0827 99.1364C53.4521 99.1364 52.908 98.9972 52.4506 98.7188C51.9961 98.4375 51.6452 98.0455 51.3981 97.5426C51.1538 97.0369 51.0316 96.4489 51.0316 95.7784C51.0316 95.108 51.1538 94.517 51.3981 94.0057C51.6452 93.4915 51.989 93.0909 52.4293 92.804C52.8725 92.5142 53.3896 92.3693 53.9805 92.3693C54.3214 92.3693 54.658 92.4261 54.9904 92.5398C55.3228 92.6534 55.6254 92.8381 55.8981 93.0938C56.1708 93.3466 56.3881 93.6818 56.5501 94.0994C56.712 94.517 56.793 95.0312 56.793 95.642V96.0682H51.7475V95.1989H55.7702C55.7702 94.8295 55.6964 94.5 55.5487 94.2102C55.4038 93.9205 55.1964 93.6918 54.9265 93.5241C54.6594 93.3565 54.3441 93.2727 53.9805 93.2727C53.5799 93.2727 53.2333 93.3722 52.9407 93.571C52.6509 93.767 52.4279 94.0227 52.2717 94.3381C52.1154 94.6534 52.0373 94.9915 52.0373 95.3523V95.9318C52.0373 96.4261 52.1225 96.8452 52.293 97.1889C52.4663 97.5298 52.7063 97.7898 53.0131 97.9688C53.32 98.1449 53.6765 98.233 54.0827 98.233C54.3469 98.233 54.5856 98.196 54.7987 98.1222C55.0146 98.0455 55.2006 97.9318 55.3569 97.7812C55.5131 97.6278 55.6339 97.4375 55.7191 97.2102L56.6907 97.483C56.5884 97.8125 56.4165 98.1023 56.1751 98.3523C55.9336 98.5994 55.6353 98.7926 55.2802 98.9318C54.9251 99.0682 54.5259 99.1364 54.0827 99.1364ZM61.6978 101.455V92.4545H62.6694V93.4943H62.7887C62.8626 93.3807 62.9648 93.2358 63.0955 93.0597C63.229 92.8807 63.4194 92.7216 63.6665 92.5824C63.9165 92.4403 64.2546 92.3693 64.6808 92.3693C65.2319 92.3693 65.7177 92.5071 66.1381 92.7827C66.5586 93.0582 66.8867 93.4489 67.1225 93.9545C67.3583 94.4602 67.4762 95.0568 67.4762 95.7443C67.4762 96.4375 67.3583 97.0384 67.1225 97.5469C66.8867 98.0526 66.56 98.4446 66.1424 98.723C65.7248 98.9986 65.2433 99.1364 64.6978 99.1364C64.2773 99.1364 63.9407 99.0668 63.6879 98.9276C63.435 98.7855 63.2404 98.625 63.104 98.446C62.9677 98.2642 62.8626 98.1136 62.7887 97.9943H62.7035V101.455H61.6978ZM62.6864 95.7273C62.6864 96.2216 62.7589 96.6577 62.9038 97.0355C63.0487 97.4105 63.2603 97.7045 63.5387 97.9176C63.8171 98.1278 64.158 98.233 64.5614 98.233C64.9819 98.233 65.3327 98.1222 65.614 97.9006C65.8981 97.6761 66.1112 97.375 66.2532 96.9972C66.3981 96.6165 66.4705 96.1932 66.4705 95.7273C66.4705 95.267 66.3995 94.8523 66.2575 94.483C66.1183 94.1108 65.9066 93.8168 65.6225 93.6009C65.3413 93.3821 64.9876 93.2727 64.5614 93.2727C64.1523 93.2727 63.8086 93.3764 63.5302 93.5838C63.2518 93.7884 63.0415 94.0753 62.8995 94.4446C62.7575 94.8111 62.6864 95.2386 62.6864 95.7273ZM69.0103 99V92.4545H69.9819V93.4432H70.0501C70.1694 93.1193 70.3853 92.8565 70.6978 92.6548C71.0103 92.4531 71.3626 92.3523 71.7546 92.3523C71.8285 92.3523 71.9208 92.3537 72.0316 92.3565C72.1424 92.3594 72.2262 92.3636 72.283 92.3693V93.392C72.2489 93.3835 72.1708 93.3707 72.0487 93.3537C71.9293 93.3338 71.8029 93.3239 71.6694 93.3239C71.3512 93.3239 71.0671 93.3906 70.8171 93.5241C70.57 93.6548 70.3739 93.8366 70.229 94.0696C70.087 94.2997 70.016 94.5625 70.016 94.858V99H69.0103ZM73.4751 99V92.4545H74.4808V99H73.4751ZM73.9865 91.3636C73.7905 91.3636 73.6214 91.2969 73.4794 91.1634C73.3402 91.0298 73.2706 90.8693 73.2706 90.6818C73.2706 90.4943 73.3402 90.3338 73.4794 90.2003C73.6214 90.0668 73.7905 90 73.9865 90C74.1825 90 74.3501 90.0668 74.4893 90.2003C74.6314 90.3338 74.7024 90.4943 74.7024 90.6818C74.7024 90.8693 74.6314 91.0298 74.4893 91.1634C74.3501 91.2969 74.1825 91.3636 73.9865 91.3636ZM77.3285 95.0625V99H76.3228V92.4545H77.2944V93.4773H77.3796C77.533 93.1449 77.766 92.8778 78.0785 92.6761C78.391 92.4716 78.7944 92.3693 79.2887 92.3693C79.7319 92.3693 80.1197 92.4602 80.4521 92.642C80.7844 92.821 81.043 93.0938 81.2276 93.4602C81.4123 93.8239 81.5046 94.2841 81.5046 94.8409V99H80.4989V94.9091C80.4989 94.3949 80.3654 93.9943 80.0984 93.7074C79.8313 93.4176 79.4648 93.2727 78.9989 93.2727C78.6779 93.2727 78.391 93.3423 78.1381 93.4815C77.8881 93.6207 77.6907 93.8239 77.5458 94.0909C77.4009 94.358 77.3285 94.6818 77.3285 95.0625ZM86.0014 99.1364C85.3878 99.1364 84.8594 98.9915 84.4162 98.7017C83.973 98.4119 83.6321 98.0128 83.3935 97.5043C83.1548 96.9957 83.0355 96.4148 83.0355 95.7614C83.0355 95.0966 83.1577 94.5099 83.402 94.0014C83.6491 93.4901 83.9929 93.0909 84.4332 92.804C84.8764 92.5142 85.3935 92.3693 85.9844 92.3693C86.4446 92.3693 86.8594 92.4545 87.2287 92.625C87.598 92.7955 87.9006 93.0341 88.1364 93.3409C88.3722 93.6477 88.5185 94.0057 88.5753 94.4148H87.5696C87.4929 94.1165 87.3224 93.8523 87.0582 93.6222C86.7969 93.3892 86.4446 93.2727 86.0014 93.2727C85.6094 93.2727 85.2656 93.375 84.9702 93.5795C84.6776 93.7812 84.4489 94.0668 84.2841 94.4361C84.1222 94.8026 84.0412 95.233 84.0412 95.7273C84.0412 96.233 84.1207 96.6733 84.2798 97.0483C84.4418 97.4233 84.669 97.7145 84.9616 97.9219C85.2571 98.1293 85.6037 98.233 86.0014 98.233C86.2628 98.233 86.5 98.1875 86.7131 98.0966C86.9261 98.0057 87.1065 97.875 87.2543 97.7045C87.402 97.5341 87.5071 97.3295 87.5696 97.0909H88.5753C88.5185 97.4773 88.3778 97.8253 88.1534 98.1349C87.9318 98.4418 87.6378 98.6861 87.2713 98.8679C86.9077 99.0469 86.4844 99.1364 86.0014 99.1364ZM90.0455 99V92.4545H91.0511V99H90.0455ZM90.5568 91.3636C90.3608 91.3636 90.1918 91.2969 90.0497 91.1634C89.9105 91.0298 89.8409 90.8693 89.8409 90.6818C89.8409 90.4943 89.9105 90.3338 90.0497 90.2003C90.1918 90.0668 90.3608 90 90.5568 90C90.7528 90 90.9205 90.0668 91.0597 90.2003C91.2017 90.3338 91.2727 90.4943 91.2727 90.6818C91.2727 90.8693 91.2017 91.0298 91.0597 91.1634C90.9205 91.2969 90.7528 91.3636 90.5568 91.3636ZM92.8931 101.455V92.4545H93.8647V93.4943H93.984C94.0579 93.3807 94.1602 93.2358 94.2908 93.0597C94.4244 92.8807 94.6147 92.7216 94.8619 92.5824C95.1119 92.4403 95.4499 92.3693 95.8761 92.3693C96.4272 92.3693 96.913 92.5071 97.3335 92.7827C97.7539 93.0582 98.082 93.4489 98.3178 93.9545C98.5536 94.4602 98.6715 95.0568 98.6715 95.7443C98.6715 96.4375 98.5536 97.0384 98.3178 97.5469C98.082 98.0526 97.7553 98.4446 97.3377 98.723C96.9201 98.9986 96.4386 99.1364 95.8931 99.1364C95.4727 99.1364 95.136 99.0668 94.8832 98.9276C94.6303 98.7855 94.4357 98.625 94.2994 98.446C94.163 98.2642 94.0579 98.1136 93.984 97.9943H93.8988V101.455H92.8931ZM93.8817 95.7273C93.8817 96.2216 93.9542 96.6577 94.0991 97.0355C94.244 97.4105 94.4556 97.7045 94.734 97.9176C95.0124 98.1278 95.3533 98.233 95.7567 98.233C96.1772 98.233 96.5281 98.1222 96.8093 97.9006C97.0934 97.6761 97.3065 97.375 97.4485 96.9972C97.5934 96.6165 97.6658 96.1932 97.6658 95.7273C97.6658 95.267 97.5948 94.8523 97.4528 94.483C97.3136 94.1108 97.1019 93.8168 96.8178 93.6009C96.5366 93.3821 96.1829 93.2727 95.7567 93.2727C95.3477 93.2727 95.0039 93.3764 94.7255 93.5838C94.4471 93.7884 94.2369 94.0753 94.0948 94.4446C93.9528 94.8111 93.8817 95.2386 93.8817 95.7273ZM102.132 99.1534C101.717 99.1534 101.341 99.0753 101.002 98.919C100.664 98.7599 100.396 98.5312 100.197 98.233C99.9982 97.9318 99.8988 97.5682 99.8988 97.142C99.8988 96.767 99.9727 96.4631 100.12 96.2301C100.268 95.9943 100.466 95.8097 100.713 95.6761C100.96 95.5426 101.233 95.4432 101.531 95.3778C101.832 95.3097 102.135 95.2557 102.439 95.2159C102.836 95.1648 103.159 95.1264 103.406 95.1009C103.656 95.0724 103.838 95.0256 103.951 94.9602C104.068 94.8949 104.126 94.7812 104.126 94.6193V94.5852C104.126 94.1648 104.011 93.8381 103.781 93.6051C103.554 93.3722 103.208 93.2557 102.745 93.2557C102.265 93.2557 101.889 93.3608 101.616 93.571C101.343 93.7812 101.152 94.0057 101.041 94.2443L100.086 93.9034C100.257 93.5057 100.484 93.196 100.768 92.9744C101.055 92.75 101.368 92.5937 101.706 92.5057C102.047 92.4148 102.382 92.3693 102.711 92.3693C102.922 92.3693 103.163 92.3949 103.436 92.446C103.711 92.4943 103.977 92.5952 104.233 92.7486C104.491 92.902 104.706 93.1335 104.876 93.4432C105.047 93.7528 105.132 94.1676 105.132 94.6875V99H104.126V98.1136H104.075C104.007 98.2557 103.893 98.4077 103.734 98.5696C103.575 98.7315 103.363 98.8693 103.099 98.983C102.835 99.0966 102.512 99.1534 102.132 99.1534ZM102.285 98.25C102.683 98.25 103.018 98.1719 103.291 98.0156C103.566 97.8594 103.774 97.6577 103.913 97.4105C104.055 97.1634 104.126 96.9034 104.126 96.6307V95.7102C104.083 95.7614 103.99 95.8082 103.845 95.8509C103.703 95.8906 103.538 95.9261 103.35 95.9574C103.166 95.9858 102.985 96.0114 102.809 96.0341C102.636 96.054 102.495 96.071 102.387 96.0852C102.126 96.1193 101.882 96.1747 101.654 96.2514C101.43 96.3253 101.248 96.4375 101.109 96.5881C100.973 96.7358 100.904 96.9375 100.904 97.1932C100.904 97.5426 101.034 97.8068 101.292 97.9858C101.554 98.1619 101.885 98.25 102.285 98.25ZM107.973 90.2727V99H106.967V90.2727H107.973ZM110.548 99.0682C110.338 99.0682 110.157 98.9929 110.007 98.8423C109.856 98.6918 109.781 98.5114 109.781 98.3011C109.781 98.0909 109.856 97.9105 110.007 97.7599C110.157 97.6094 110.338 97.5341 110.548 97.5341C110.758 97.5341 110.939 97.6094 111.089 97.7599C111.24 97.9105 111.315 98.0909 111.315 98.3011C111.315 98.4403 111.279 98.5682 111.208 98.6847C111.14 98.8011 111.048 98.8949 110.931 98.9659C110.818 99.0341 110.69 99.0682 110.548 99.0682ZM115.864 99.1364C115.233 99.1364 114.689 98.9972 114.232 98.7188C113.777 98.4375 113.426 98.0455 113.179 97.5426C112.935 97.0369 112.813 96.4489 112.813 95.7784C112.813 95.108 112.935 94.517 113.179 94.0057C113.426 93.4915 113.77 93.0909 114.211 92.804C114.654 92.5142 115.171 92.3693 115.762 92.3693C116.103 92.3693 116.439 92.4261 116.772 92.5398C117.104 92.6534 117.407 92.8381 117.679 93.0938C117.952 93.3466 118.169 93.6818 118.331 94.0994C118.493 94.517 118.574 95.0312 118.574 95.642V96.0682H113.529V95.1989H117.551C117.551 94.8295 117.478 94.5 117.33 94.2102C117.185 93.9205 116.978 93.6918 116.708 93.5241C116.441 93.3565 116.125 93.2727 115.762 93.2727C115.361 93.2727 115.015 93.3722 114.722 93.571C114.432 93.767 114.209 94.0227 114.053 94.3381C113.897 94.6534 113.819 94.9915 113.819 95.3523V95.9318C113.819 96.4261 113.904 96.8452 114.074 97.1889C114.248 97.5298 114.488 97.7898 114.794 97.9688C115.101 98.1449 115.458 98.233 115.864 98.233C116.128 98.233 116.367 98.196 116.58 98.1222C116.796 98.0455 116.982 97.9318 117.138 97.7812C117.294 97.6278 117.415 97.4375 117.5 97.2102L118.472 97.483C118.37 97.8125 118.198 98.1023 117.956 98.3523C117.715 98.5994 117.417 98.7926 117.061 98.9318C116.706 99.0682 116.307 99.1364 115.864 99.1364Z" fill="#686868" />
    <path fill-rule="evenodd" clip-rule="evenodd" d="M65.4266 21.7097C64.7052 20.8629 64.2169 19.8252 64.2985 18.6624C64.5336 15.3119 69.1975 16.049 70.1047 17.74C71.0119 19.431 70.9041 23.7204 69.7316 24.0226C69.264 24.1431 68.2679 23.8479 67.2541 23.2368L67.8904 27.7387H64.1331L65.4266 21.7097Z" fill="#B28B67" />
    <path fill-rule="evenodd" clip-rule="evenodd" d="M67.442 19.0324C67.5858 21.0359 67.9663 22.0376 68.5834 22.0376C69.5091 22.0376 70.2945 21.45 70.7007 21.45C70.9967 21.45 70.9306 21.8205 70.7344 22.0952C70.5725 22.3219 69.7839 22.5403 69.7839 22.8917C69.7839 23.2431 70.4069 22.9712 70.4069 23.1796C70.4069 23.5244 70.5164 24.1725 69.9181 24.1725C69.3126 24.1725 67.5766 23.9518 67.2791 23.0532C67.0871 22.4732 66.9629 21.2714 66.9066 19.4478C66.8699 19.4434 66.8325 19.4412 66.7946 19.4412C66.2758 19.4412 65.8553 19.8617 65.8553 20.3805C65.8553 20.6439 65.9636 20.8819 66.1382 21.0525C65.9209 21.3593 65.6773 21.6798 65.3982 22.0105C64.3495 21.3813 63.5714 19.5396 64.5966 17.7704C64.88 16.9037 65.5215 16.4408 66.2791 16.2258C66.8928 15.9691 67.5299 15.9401 68.0677 16.094C69.122 16.1845 70.0634 16.5059 70.3302 16.6968C70.3302 17.6949 70.1368 17.9911 68.4849 17.965C68.079 18.1793 67.767 18.5484 67.442 19.0324Z" fill="#191847" />
    <path fill-rule="evenodd" clip-rule="evenodd" d="M62.8804 40.733L68.5564 60.6514L72.6976 75.3323H75.7181L71.3174 40.733H62.8804Z" fill="#191847" />
    <path fill-rule="evenodd" clip-rule="evenodd" d="M61.3625 40.733C61.2312 50.9992 60.7835 56.5986 60.6457 57.5314C60.5078 58.4641 58.4235 64.3978 54.3928 75.3323H57.5218C62.6532 64.8425 65.5177 58.9088 66.1153 57.5314C66.7128 56.1539 68.557 50.5545 71.3345 40.733H61.3625Z" fill="#2F3676" />
    <path fill-rule="evenodd" clip-rule="evenodd" d="M54.1133 78.1504L54.2698 74.8627H57.5576C59.1165 75.9586 61.1518 76.8457 63.6633 77.5242V78.1504H57.7141L55.6789 77.8373V78.1504H54.1133Z" fill="#191847" />
    <path fill-rule="evenodd" clip-rule="evenodd" d="M72.2739 78.1504L72.4305 74.8627H75.7182C77.2771 75.9586 79.3124 76.8457 81.824 77.5242V78.1504H75.8748L73.8395 77.8373V78.1504H72.2739Z" fill="#191847" />
    <path fill-rule="evenodd" clip-rule="evenodd" d="M76.0877 38.167L80.8136 42.1736C82.1393 42.6327 83.2364 43.1652 84.105 43.7713C84.3055 43.9814 84.5367 44.3946 83.6534 44.2642C82.77 44.1338 81.8351 44.0364 81.6913 44.3307C81.5476 44.6251 82.0597 45.0249 81.7834 45.4163C81.5992 45.6772 80.8668 44.9395 79.5862 43.203L74.796 40.8123L76.0877 38.167ZM54.6875 36.4333L57.4604 36.836C54.4839 43.2939 52.8882 46.7093 52.6732 47.082C52.1895 47.9206 52.7584 49.3813 52.9808 50.1546C51.8569 50.4791 52.2158 48.7428 50.7948 49.1758C49.4978 49.5711 48.4274 50.4672 47.1428 49.4017C46.9849 49.2707 46.8519 48.8423 47.3539 48.5927C48.6045 47.9708 50.4407 46.8329 50.7261 46.4135C51.1154 45.8416 52.4358 42.5149 54.6875 36.4333Z" fill="#B28B67" />
    <path fill-rule="evenodd" clip-rule="evenodd" d="M66.2772 25.1292L67.9954 24.561C70.3262 30.3834 73.8023 36.0169 79.61 40.7753L78.1738 43.2531C73.0696 40.2464 68.2379 37.9107 66.2772 33.399C65.6192 31.8848 66.2235 26.9398 66.2772 25.1292Z" fill="#C5CFD6" />
    <path fill-rule="evenodd" clip-rule="evenodd" d="M60.3755 41.5158C65.2974 42.0377 69.1715 42.0377 71.9978 41.5158C72.3479 41.4512 72.4032 40.8649 72.2408 40.467C69.712 34.271 67.978 28.8646 67.978 24.561C67.514 24.7949 66.702 24.83 65.5419 24.6662C62.4242 29.1012 60.9912 34.1899 60.3755 41.5158Z" fill="#323337" />
    <path fill-rule="evenodd" clip-rule="evenodd" d="M64.7671 24.2944H66.0663C66.3689 26.0737 67.3231 50.1676 70.2687 58.0492H54.3303C54.6758 50.829 57.4016 42.1557 60.1628 34.8978C57.7212 37.1321 55.5931 40.9179 53.7787 46.2552L50.7932 45.4888C53.013 35.9237 57.5768 28.8933 64.4848 24.3976C64.4997 24.363 64.5146 24.3286 64.5294 24.2944H64.6444C64.6867 24.2672 64.7292 24.2402 64.7716 24.2132L64.7671 24.2944Z" fill="#DDE3E9" />
    <defs>
        <filter id="filter0_d_0_1" x="0" y="0" width="131" height="120" filterUnits="userSpaceOnUse" color-interpolation-filters="sRGB">
            <feFlood flood-opacity="0" result="BackgroundImageFix" />
            <feColorMatrix in="SourceAlpha" type="matrix" values="0 0 0 0 0 0 0 0 0 0 0 0 0 0 0 0 0 0 127 0" result="hardAlpha" />
            <feOffset dy="4" />
            <feGaussianBlur stdDeviation="2" />
            <feComposite in2="hardAlpha" operator="out" />
            <feColorMatrix type="matrix" values="0 0 0 0 0 0 0 0 0 0 0 0 0 0 0 0 0 0 0.25 0" />
            <feBlend mode="normal" in2="BackgroundImageFix" result="effect1_dropShadow_0_1" />
            <feBlend mode="normal" in="SourceGraphic" in2="effect1_dropShadow_0_1" result="shape" />
        </filter>
    </defs>
</svg>
    
    